<svg fill="#fff" height="512" width="512" xmlns="http://www.w3.org/2000/svg"><path d="M256 360.099c-57.4 0-104.099-46.698-104.099-104.099S198.6 151.901 256 151.901 360.099 198.6 360.099 256 313.4 360.099 256 360.099zM256 116.071c-8.284 0-15-6.716-15-15V15c0-8.284 6.716-15 15-15s15 6.716 15 15v86.071c0 8.284-6.716 15-15 15zM146.449 161.449a14.95 14.95 0 0 1-10.606-4.393L74.98 96.194c-5.858-5.858-5.858-15.355 0-21.213 5.857-5.858 15.355-5.858 21.213 0l60.862 60.861c5.858 5.858 5.858 15.355 0 21.213a14.95 14.95 0 0 1-10.606 4.394zM101.071 271H15c-8.284 0-15-6.716-15-15s6.716-15 15-15h86.071c8.284 0 15 6.716 15 15s-6.716 15-15 15zM85.587 441.413a14.946 14.946 0 0 1-10.606-4.394c-5.858-5.858-5.858-15.355 0-21.213l60.862-60.861c5.858-5.857 15.356-5.857 21.213 0 5.858 5.858 5.858 15.355 0 21.213L96.193 437.02a14.953 14.953 0 0 1-10.606 4.393zM256 512c-8.284 0-15-6.716-15-15v-86.071c0-8.284 6.716-15 15-15s15 6.716 15 15V497c0 8.284-6.716 15-15 15zM426.413 441.413a14.95 14.95 0 0 1-10.606-4.393l-60.862-60.861c-5.858-5.858-5.858-15.355 0-21.213 5.857-5.858 15.355-5.858 21.213 0l60.862 60.861c5.858 5.858 5.858 15.355 0 21.213a14.957 14.957 0 0 1-10.607 4.393zM497 271h-86.071c-8.284 0-15-6.716-15-15s6.716-15 15-15H497c8.284 0 15 6.716 15 15s-6.716 15-15 15zM365.551 161.449a14.946 14.946 0 0 1-10.606-4.394c-5.858-5.858-5.858-15.355 0-21.213l60.862-60.861c5.857-5.856 15.355-5.858 21.213 0s5.858 15.355 0 21.213l-60.862 60.861a14.956 14.956 0 0 1-10.607 4.394z"/></svg>
