<svg xmlns="http://www.w3.org/2000/svg" fill="#fff" width="920.001" height="920.001"><path d="M39.451 803.101c0-.1 0-.1 0 0 0-.1 0-.1 0 0zM795.951 690.601c0-.1 0-.1 0 0 0-.1 0-.1 0 0 9.9-17.3 15.5-37.199 15.5-58.5 0-64.3-51.7-116.399-115.8-117 10.8-26.3 10.8-50.3 10.8-50.3 0-160.8-109.2-191.2-158.9-196.7-8.1-.9-13.8 7.7-9.8 14.8 4.7 8.3 7.7 19.8 3.7 34.3-10 35.8-48.7 30.8-67.4 30.8h-139c-64.399 0-116.6 52.2-116.6 116.6v.301c0 17.899 4 35.1 11.2 50.1h-3.8c-64.6 0-117.4 52.4-117.4 117 0 21.3 5.9 41.3 15.9 58.5h.2-.2c-48.9 14-84.9 59.1-84.9 112.5 0 64.6 52.7 117 117.4 117h606.9c64.601 0 116.8-52.3 116.8-117-.1-53.401-35.7-98.401-84.6-112.401zM335.651 304.301c10.399-2.5 21.2-8.6 29.2-14.9 36.699-28.6 47.399-80.1 32.8-123-12.101-35.4-36.4-64.8-51.601-98.6-2.699-6-5.1-12-6.8-18-4.5-14.9-4.399-31-3.1-46.4v-.1c.2-2.2-2-3.9-4.101-3.1-33.199 11.5-52 45.5-54.3 79.1-2.2 31.8 8.601 62.6 23.3 90.3 14.4 27.2 30.301 51.2 33.5 82.9 1.5 14.6-1.3 38.8-2.6 48.4-.199 2.1 1.702 3.8 3.702 3.4zM137.75 420.901c10.4-2.5 21.2-8.601 29.2-14.9 36.7-28.6 47.4-80.1 32.8-123-12.1-35.4-36.4-64.8-51.6-98.6-2.7-6-5.1-12-6.8-18-4.5-14.9-4.4-31-3.1-46.4v-.1c.2-2.2-2-3.9-4.1-3.1-33.2 11.5-52 45.5-54.3 79.1-2.2 31.8 8.6 62.6 23.3 90.3 14.4 27.2 30.3 51.2 33.5 82.899 1.5 14.601-1.3 38.801-2.6 48.4-.199 2.201 1.7 3.901 3.7 3.401z"/></svg>
